<svg xmlns="http://www.w3.org/2000/svg" viewBox="0 0 1200 620" role="img" aria-label="Apartment Volume Planner architecture and processing flow"><defs><linearGradient id="bg" x1="0" x2="1"><stop stop-color="#113d34"/><stop offset="1" stop-color="#1e6958"/></linearGradient><filter id="shadow"><feDropShadow dx="0" dy="8" stdDeviation="12" flood-opacity=".18"/></filter></defs><rect width="1200" height="620" rx="28" fill="url(#bg)"/><text x="70" y="78" fill="#fff" font-family="system-ui" font-size="34" font-weight="800">Apartment Volume Planner JP</text><text x="70" y="112" fill="#bfe0d7" font-family="system-ui" font-size="17">Architecture &amp; deterministic processing flow</text><g filter="url(#shadow)" font-family="system-ui"><g transform="translate(65 175)"><rect width="220" height="260" rx="22" fill="#fff7e8"/><text x="24" y="42" font-size="18" font-weight="800" fill="#664419">1. INPUT</text><text x="24" y="82" font-size="15" fill="#3d4c48">• 敷地寸法 / GeoJSON</text><text x="24" y="112" font-size="15" fill="#3d4c48">• 道路・接道条件</text><text x="24" y="142" font-size="15" fill="#3d4c48">• 建ぺい率・容積率</text><text x="24" y="172" font-size="15" fill="#3d4c48">• 高さ・セットバック</text><text x="24" y="202" font-size="15" fill="#3d4c48">• 住戸・共用部条件</text></g><g transform="translate(345 150)"><rect width="250" height="310" rx="22" fill="#e4f3ee"/><text x="24" y="42" font-size="18" font-weight="800" fill="#135848">2. RULE ENGINE</text><text x="24" y="82" font-size="15" fill="#304b44">Geometry</text><rect x="24" y="96" width="202" height="44" rx="10" fill="#fff"/><text x="40" y="124" font-size="14" fill="#304b44">面積・包絡・後退</text><text x="24" y="174" font-size="15" fill="#304b44">Regulations</text><rect x="24" y="188" width="202" height="44" rx="10" fill="#fff"/><text x="40" y="216" font-size="14" fill="#304b44">BCR / FAR / 高さ</text><text x="24" y="266" font-size="15" fill="#304b44">Explainability</text><rect x="24" y="278" width="202" height="44" rx="10" fill="#fff"/><text x="40" y="306" font-size="14" fill="#304b44">根拠・警告・要確認</text></g><g transform="translate(655 175)"><rect width="220" height="260" rx="22" fill="#e8e5f7"/><text x="24" y="42" font-size="18" font-weight="800" fill="#493c7c">3. SOLVER</text><text x="24" y="82" font-size="15" fill="#3d4652">• 建築面積上限</text><text x="24" y="112" font-size="15" fill="#3d4652">• 延床面積上限</text><text x="24" y="142" font-size="15" fill="#3d4652">• 階数・戸数</text><text x="24" y="172" font-size="15" fill="#3d4652">• 共用部控除</text><text x="24" y="202" font-size="15" fill="#3d4652">• 基準階レイアウト</text></g><g transform="translate(935 150)"><rect width="200" height="310" rx="22" fill="#fff"/><text x="24" y="42" font-size="18" font-weight="800" fill="#173e34">4. OUTPUT</text><text x="24" y="88" font-size="15" fill="#3d4c48">KPI dashboard</text><text x="24" y="126" font-size="15" fill="#3d4c48">SVG概略図</text><text x="24" y="164" font-size="15" fill="#3d4c48">適合性チェック</text><text x="24" y="202" font-size="15" fill="#3d4c48">要確認リスト</text><text x="24" y="240" font-size="15" fill="#3d4c48">将来: DXF / IFC</text></g></g><g fill="none" stroke="#f5bd7e" stroke-width="6" stroke-linecap="round"><path d="M292 305h42"/><path d="M604 305h42"/><path d="M884 305h42"/></g><g fill="#f5bd7e"><path d="M334 305l-14-10v20z"/><path d="M646 305l-14-10v20z"/><path d="M926 305l-14-10v20z"/></g><rect x="65" y="510" width="1070" height="62" rx="16" fill="#0d2f28"/><text x="92" y="548" fill="#d7ebe6" font-family="system-ui" font-size="16">Next: MLIT GIS + municipality rule registry + daylight/shadow solver + architect review workflow</text></svg>
